HIERARCHY
ROOT Hips
{
	OFFSET 0.000000 121.760803 0.000000
	CHANNELS 6 Xposition Yposition Zposition Xrotation Yrotation Zrotation 
	JOINT Spine
	{
		OFFSET 0.072000 7.257294 -0.789700
		CHANNELS 3 Xrotation Yrotation Zrotation
		JOINT Spine1
		{
			OFFSET 0.000000 12.508769 -0.658067
			CHANNELS 3 Xrotation Yrotation Zrotation
			JOINT Spine1_split
			{
				OFFSET 0.000000 12.508769 -0.658067
				CHANNELS 3 Xrotation Yrotation Zrotation
				JOINT Spine2
				{
					OFFSET 0.000000 12.508769 -0.658067
					CHANNELS 3 Xrotation Yrotation Zrotation
					JOINT Neck
					{
						OFFSET 0.000000 14.033295 7.520400
						CHANNELS 3 Xrotation Yrotation Zrotation
						JOINT Head
						{
							OFFSET 0.000000 8.198502 5.703100
							CHANNELS 3 Xrotation Yrotation Zrotation
							JOINT HeadTop_End
							{
								OFFSET 0.000000 17.760803 13.332701
								CHANNELS 3 Xrotation Yrotation Zrotation
								End Site
								{
									OFFSET 0.000000 0.000000 0.000000
								}
							}
						}
					}
					JOINT LeftShoulder
					{
						OFFSET 6.292450 5.785301 -0.669000
						CHANNELS 3 Xrotation Yrotation Zrotation
						JOINT LeftShoulder_split
						{
							OFFSET 6.292450 5.785301 -0.669000
							CHANNELS 3 Xrotation Yrotation Zrotation
							JOINT LeftArm
							{
								OFFSET 13.907140 -6.093903 1.965100
								CHANNELS 3 Xrotation Yrotation Zrotation
								JOINT LeftForeArm
								{
									OFFSET 34.140198 0.000000 0.000000
									CHANNELS 3 Xrotation Yrotation Zrotation
									JOINT LeftHand
									{
										OFFSET 40.960209 0.000000 0.000000
										CHANNELS 3 Xrotation Yrotation Zrotation
										JOINT LeftHandThumb1
										{
											OFFSET 10.006996 -7.170425 9.573125
											CHANNELS 3 Xrotation Yrotation Zrotation
											JOINT LeftHandThumb2
											{
												OFFSET 1.835007 -1.059448 1.059443
												CHANNELS 3 Xrotation Yrotation Zrotation
												JOINT LeftHandThumb3
												{
													OFFSET 2.112267 -1.219513 1.219518
													CHANNELS 3 Xrotation Yrotation Zrotation
													JOINT LeftHandThumb4
													{
														OFFSET 4.843811 -2.796570 2.796576
														CHANNELS 3 Xrotation Yrotation Zrotation
														End Site
														{
															OFFSET 0.000000 0.000000 0.000000
														}
													}
												}
											}
										}
										JOINT LeftHandIndex1
										{
											OFFSET 18.389847 -0.922348 4.596882
											CHANNELS 3 Xrotation Yrotation Zrotation
											JOINT LeftHandIndex2
											{
												OFFSET 4.711273 0.000000 0.000000
												CHANNELS 3 Xrotation Yrotation Zrotation
												JOINT LeftHandIndex3
												{
													OFFSET 2.886131 0.000000 0.000000
													CHANNELS 3 Xrotation Yrotation Zrotation
													JOINT LeftHandIndex4
													{
														OFFSET 6.145912 0.000000 0.000000
														CHANNELS 3 Xrotation Yrotation Zrotation
														End Site
														{
															OFFSET 0.000000 0.000000 0.000000
														}
													}
												}
											}
										}
										JOINT LeftHandMiddle1
										{
											OFFSET 18.013008 0.000000 0.000000
											CHANNELS 3 Xrotation Yrotation Zrotation
											JOINT LeftHandMiddle2
											{
												OFFSET 4.946693 0.000000 0.000000
												CHANNELS 3 Xrotation Yrotation Zrotation
												JOINT LeftHandMiddle3
												{
													OFFSET 3.342232 0.000000 0.000000
													CHANNELS 3 Xrotation Yrotation Zrotation
													JOINT LeftHandMiddle4
													{
														OFFSET 4.461754 0.000000 0.000000
														CHANNELS 3 Xrotation Yrotation Zrotation
														End Site
														{
															OFFSET 0.000000 0.000000 0.000000
														}
													}
												}
											}
										}
										JOINT LeftHandRing1
										{
											OFFSET 15.849892 -0.102921 -4.126150
											CHANNELS 3 Xrotation Yrotation Zrotation
											JOINT LeftHandRing2
											{
												OFFSET 3.527054 0.000000 0.000000
												CHANNELS 3 Xrotation Yrotation Zrotation
												JOINT LeftHandRing3
												{
													OFFSET 2.961098 0.000000 0.000000
													CHANNELS 3 Xrotation Yrotation Zrotation
													JOINT LeftHandRing4
													{
														OFFSET 4.927200 0.000000 0.000000
														CHANNELS 3 Xrotation Yrotation Zrotation
														End Site
														{
															OFFSET 0.000000 0.000000 0.000000
														}
													}
												}
											}
										}
										JOINT LeftHandPinky1
										{
											OFFSET 12.791824 -0.832031 -6.799156
											CHANNELS 3 Xrotation Yrotation Zrotation
											JOINT LeftHandPinky2
											{
												OFFSET 3.327133 0.000000 0.000000
												CHANNELS 3 Xrotation Yrotation Zrotation
												JOINT LeftHandPinky3
												{
													OFFSET 3.014900 0.000000 0.000000
													CHANNELS 3 Xrotation Yrotation Zrotation
													JOINT LeftHandPinky4
													{
														OFFSET 5.847786 0.000000 0.000000
														CHANNELS 3 Xrotation Yrotation Zrotation
														End Site
														{
															OFFSET 0.000000 0.000000 0.000000
														}
													}
												}
											}
										}
									}
								}
							}
						}
					}
					JOINT RightShoulder
					{
						OFFSET -6.292450 5.785301 -0.669000
						CHANNELS 3 Xrotation Yrotation Zrotation
						JOINT RightShoulder_split
						{
							OFFSET -6.292450 5.785301 -0.669000
							CHANNELS 3 Xrotation Yrotation Zrotation
							JOINT RightArm
							{
								OFFSET -13.907140 -6.093903 1.965100
								CHANNELS 3 Xrotation Yrotation Zrotation
								JOINT RightForeArm
								{
									OFFSET -34.140198 0.000000 0.000000
									CHANNELS 3 Xrotation Yrotation Zrotation
									JOINT RightHand
									{
										OFFSET -40.960209 0.000000 0.000000
										CHANNELS 3 Xrotation Yrotation Zrotation
										JOINT RightHandThumb1
										{
											OFFSET -10.007050 -7.170456 9.573117
											CHANNELS 3 Xrotation Yrotation Zrotation
											JOINT RightHandThumb2
											{
												OFFSET -1.835007 -1.059448 1.059443
												CHANNELS 3 Xrotation Yrotation Zrotation
												JOINT RightHandThumb3
												{
													OFFSET -2.112267 -1.219513 1.219518
													CHANNELS 3 Xrotation Yrotation Zrotation
													JOINT RightHandThumb4
													{
														OFFSET -4.843834 -2.796585 2.796590
														CHANNELS 3 Xrotation Yrotation Zrotation
														End Site
														{
															OFFSET 0.000000 0.000000 0.000000
														}
													}
												}
											}
										}
										JOINT RightHandIndex1
										{
											OFFSET -18.389870 -0.922424 4.596786
											CHANNELS 3 Xrotation Yrotation Zrotation
											JOINT RightHandIndex2
											{
												OFFSET -4.711273 0.000000 0.000000
												CHANNELS 3 Xrotation Yrotation Zrotation
												JOINT RightHandIndex3
												{
													OFFSET -2.886131 0.000000 0.000000
													CHANNELS 3 Xrotation Yrotation Zrotation
													JOINT RightHandIndex4
													{
														OFFSET -6.145920 0.000000 0.000000
														CHANNELS 3 Xrotation Yrotation Zrotation
														End Site
														{
															OFFSET 0.000000 0.000000 0.000000
														}
													}
												}
											}
										}
										JOINT RightHandMiddle1
										{
											OFFSET -18.013008 0.000000 0.000000
											CHANNELS 3 Xrotation Yrotation Zrotation
											JOINT RightHandMiddle2
											{
												OFFSET -4.946693 0.000000 0.000000
												CHANNELS 3 Xrotation Yrotation Zrotation
												JOINT RightHandMiddle3
												{
													OFFSET -3.342232 0.000000 0.000000
													CHANNELS 3 Xrotation Yrotation Zrotation
													JOINT RightHandMiddle4
													{
														OFFSET -4.461754 0.000000 0.000000
														CHANNELS 3 Xrotation Yrotation Zrotation
														End Site
														{
															OFFSET 0.000000 0.000000 0.000000
														}
													}
												}
											}
										}
										JOINT RightHandRing1
										{
											OFFSET -15.849876 -0.102936 -4.126237
											CHANNELS 3 Xrotation Yrotation Zrotation
											JOINT RightHandRing2
											{
												OFFSET -3.527054 0.000000 0.000000
												CHANNELS 3 Xrotation Yrotation Zrotation
												JOINT RightHandRing3
												{
													OFFSET -2.961098 0.000000 0.000000
													CHANNELS 3 Xrotation Yrotation Zrotation
													JOINT RightHandRing4
													{
														OFFSET -4.927200 0.000000 0.000000
														CHANNELS 3 Xrotation Yrotation Zrotation
														End Site
														{
															OFFSET 0.000000 0.000000 0.000000
														}
													}
												}
											}
										}
										JOINT RightHandPinky1
										{
											OFFSET -12.791786 -0.832077 -6.799222
											CHANNELS 3 Xrotation Yrotation Zrotation
											JOINT RightHandPinky2
											{
												OFFSET -3.327133 0.000000 0.000000
												CHANNELS 3 Xrotation Yrotation Zrotation
												JOINT RightHandPinky3
												{
													OFFSET -3.014900 0.000000 0.000000
													CHANNELS 3 Xrotation Yrotation Zrotation
													JOINT RightHandPinky4
													{
														OFFSET -5.847786 0.000000 0.000000
														CHANNELS 3 Xrotation Yrotation Zrotation
														End Site
														{
															OFFSET 0.000000 0.000000 0.000000
														}
													}
												}
											}
										}
									}
								}
							}
						}
					}
				}
			}
		}
	}
	JOINT LeftUpLeg
	{
		OFFSET 13.026900 -6.336304 -1.092800
		CHANNELS 3 Xrotation Yrotation Zrotation
		JOINT LeftLeg
		{
			OFFSET 0.524474 -46.096886 9.782700
			CHANNELS 3 Xrotation Yrotation Zrotation
			JOINT LeftFoot
			{
				OFFSET -0.524474 -53.427422 -12.948200
				CHANNELS 3 Xrotation Yrotation Zrotation
				JOINT LeftToeBase
				{
					OFFSET 0.192200 -14.009700 16.364100
					CHANNELS 3 Xrotation Yrotation Zrotation
					JOINT LeftToe_End
					{
						OFFSET -1.784700 -0.561700 9.474800
						CHANNELS 3 Xrotation Yrotation Zrotation
						End Site
						{
							OFFSET 0.000000 0.000000 0.000000
						}
					}
				}
			}
		}
	}
	JOINT RightUpLeg
	{
		OFFSET -12.883000 -6.336304 -1.092800
		CHANNELS 3 Xrotation Yrotation Zrotation
		JOINT RightLeg
		{
			OFFSET -0.524587 -46.096825 9.782800
			CHANNELS 3 Xrotation Yrotation Zrotation
			JOINT RightFoot
			{
				OFFSET 0.524587 -53.427383 -12.948300
				CHANNELS 3 Xrotation Yrotation Zrotation
				JOINT RightToeBase
				{
					OFFSET -0.192200 -14.009700 16.364100
					CHANNELS 3 Xrotation Yrotation Zrotation
					JOINT RightToe_End
					{
						OFFSET 1.784700 -0.561700 9.474800
						CHANNELS 3 Xrotation Yrotation Zrotation
						End Site
						{
							OFFSET 0.000000 0.000000 0.000000
						}
					}
				}
			}
		}
	}
}
MOTION
Frames: 4
Frame Time: 0.016667
0.022616 131.329819 -0.550392 -90.677359 -2.009948 1.604272 0.644249 -0.182555 -0.679042 0.768344 0.010520 -0.441587 0.000000 0.000000 0.000000 0.794644 0.003108 -0.423897 -4.679081 4.214175 -8.229253 4.592461 8.465935 -14.419387 0.000000 -0.000000 -0.000001 0.826363 -6.003513 -3.769294 0.000000 0.000000 0.000000 44.058163 -39.817062 -34.619569 0.000380 -83.309477 0.000382 -22.984416 -8.371317 7.116295 -1.945765 1.585347 13.204802 8.601852 21.114949 -0.258292 -4.250524 28.326751 20.005252 0.000002 -0.000000 -0.000000 0.776305 5.158037 -28.512495 0.566016 2.514176 -25.370932 0.306477 1.871759 -18.596443 0.000001 0.000000 -0.000003 0.776307 5.158036 -28.512495 0.566009 2.514182 -25.370931 0.084762 0.994027 -9.747970 -0.000003 0.000001 0.000001 0.776308 5.158034 -28.512498 0.351474 2.000427 -19.928011 0.131451 1.235366 -12.147809 0.000001 -0.000002 0.000000 0.776304 5.158041 -28.512500 0.064897 0.870545 -8.527016 0.131458 1.235371 -12.147806 0.000001 -0.000001 0.000000 0.511990 4.220234 2.974419 0.000000 0.000000 0.000000 -4.382356 2.494164 83.944186 -0.000003 129.402442 0.000020 -0.000553 -5.590412 64.849593 -1.120907 -3.665706 -6.555860 8.244835 -30.620790 -3.274781 -5.098222 -8.587465 -15.375845 0.000000 -0.000001 0.000001 4.540602 -8.344327 48.387399 6.575553 -4.244508 114.349087 1.886329 -3.744694 53.459809 0.000000 0.000002 0.000001 2.375471 -6.542199 44.640218 7.222609 -3.888174 123.454809 1.885851 -3.744342 53.452678 -0.000002 0.000001 0.000001 2.745564 -6.923871 44.442286 7.225010 -3.886594 123.490298 1.886202 -3.744586 53.457821 0.000001 -0.000003 -0.000000 -10.268032 -14.528487 47.436296 6.314152 -4.353044 110.862904 1.885511 -3.744063 53.447193 -0.000001 0.000000 -0.000000 -3.822056 20.403296 15.186967 3.044898 1.321802 1.572853 22.671075 29.829748 -25.433032 -2.210862 0.000002 0.000003 -0.000000 -0.000003 0.000000 -5.371851 -20.122224 -17.065887 2.328639 -5.560822 -4.763393 33.481461 -29.987218 30.761697 -5.352614 0.000015 0.000002 0.000001 0.000001 0.000000 
0.028269 131.329285 -0.548874 -90.685023 -2.005443 1.600897 0.644572 -0.182886 -0.671046 0.775535 0.010199 -0.441929 0.000000 0.000000 0.000000 0.799318 0.002338 -0.423854 -4.701087 4.246302 -8.217696 5.074996 8.483805 -14.697201 -0.000000 -0.000001 -0.000001 0.821167 -6.021021 -3.761135 0.000000 0.000000 0.000000 44.049492 -39.813005 -34.639052 0.000332 -83.307148 0.000342 -22.981570 -8.387148 7.124597 -1.945764 1.585345 13.204800 8.601857 21.114946 -0.258289 -4.250527 28.326762 20.005252 0.000002 -0.000002 0.000002 0.776307 5.158041 -28.512490 0.566013 2.514171 -25.370934 0.306477 1.871758 -18.596442 -0.000001 0.000000 -0.000003 0.776307 5.158035 -28.512495 0.566012 2.514184 -25.370929 0.084760 0.994024 -9.747971 0.000003 0.000001 -0.000002 0.776306 5.158033 -28.512500 0.351474 2.000420 -19.928008 0.131448 1.235371 -12.147812 0.000001 -0.000002 -0.000001 0.776303 5.158040 -28.512498 0.064897 0.870540 -8.527016 0.131460 1.235372 -12.147804 -0.000000 0.000001 -0.000000 0.506630 4.242360 2.977801 0.000000 0.000000 0.000000 -4.368376 2.476188 83.932834 0.000040 129.413507 -0.000022 -0.003262 -5.593550 64.841943 -1.120909 -3.665705 -6.555860 8.244837 -30.620790 -3.274786 -5.098217 -8.587460 -15.375842 -0.000003 0.000000 -0.000000 4.540598 -8.344329 48.387399 6.575556 -4.244505 114.349080 1.886326 -3.744692 53.459809 0.000002 -0.000001 -0.000002 2.375469 -6.542201 44.640214 7.222605 -3.888172 123.454809 1.885851 -3.744341 53.452678 -0.000002 0.000001 0.000003 2.745565 -6.923871 44.442289 7.225013 -3.886591 123.490298 1.886202 -3.744590 53.457821 0.000002 -0.000002 0.000002 -10.268033 -14.528489 47.436292 6.314153 -4.353043 110.862904 1.885509 -3.744066 53.447200 0.000001 0.000000 -0.000000 -3.820679 20.405311 15.189871 3.053288 1.327573 1.572979 22.664883 29.827395 -25.428045 -2.262165 -0.000000 0.000018 0.000000 -0.000001 0.000000 -5.361864 -20.122333 -17.066870 2.329237 -5.569758 -4.763557 33.481806 -29.986935 30.769452 -5.318790 -0.000033 0.000010 -0.000000 0.000000 0.000000 
0.034358 131.328476 -0.546303 -90.692727 -2.000872 1.597240 0.644851 -0.183181 -0.662008 0.783313 0.010056 -0.442169 0.000000 0.000000 0.000000 0.801158 0.001820 -0.423847 -4.737148 4.281857 -8.205620 5.647828 8.498316 -15.023532 0.000000 0.000000 -0.000001 0.816276 -6.034780 -3.754559 0.000000 0.000000 0.000000 44.044885 -39.812346 -34.650175 0.000226 -83.304143 0.000207 -22.980127 -8.404212 7.133040 -1.945767 1.585343 13.204808 8.601851 21.114944 -0.258287 -4.250527 28.326760 20.005252 -0.000003 0.000001 0.000000 0.776306 5.158036 -28.512486 0.566012 2.514167 -25.370932 0.306476 1.871757 -18.596442 -0.000003 -0.000002 -0.000001 0.776303 5.158033 -28.512490 0.566013 2.514182 -25.370929 0.084759 0.994024 -9.747971 0.000000 0.000001 -0.000001 0.776304 5.158031 -28.512490 0.351474 2.000422 -19.928013 0.131452 1.235370 -12.147811 0.000001 -0.000002 0.000002 0.776300 5.158037 -28.512490 0.064895 0.870543 -8.527014 0.131458 1.235370 -12.147806 0.000000 -0.000000 -0.000001 0.501675 4.258664 2.981406 0.000000 0.000000 0.000000 -4.356463 2.463917 83.921838 0.000028 129.421908 -0.000032 -0.006375 -5.596641 64.834184 -1.120910 -3.665705 -6.555860 8.244834 -30.620793 -3.274781 -5.098221 -8.587462 -15.375844 0.000001 0.000000 0.000001 4.540592 -8.344328 48.387403 6.575553 -4.244507 114.349087 1.886327 -3.744693 53.459812 0.000006 -0.000000 0.000001 2.375469 -6.542198 44.640218 7.222601 -3.888174 123.454809 1.885849 -3.744341 53.452678 -0.000003 -0.000000 0.000000 2.745564 -6.923869 44.442282 7.225019 -3.886593 123.490298 1.886198 -3.744588 53.457821 -0.000001 -0.000001 -0.000001 -10.268030 -14.528487 47.436296 6.314156 -4.353043 110.862904 1.885510 -3.744062 53.447197 0.000001 -0.000000 -0.000001 -3.819792 20.406782 15.193196 3.064712 1.331437 1.573149 22.657805 29.824130 -25.427242 -2.313745 -0.000006 0.000002 0.000001 0.000003 -0.000000 -5.353153 -20.122094 -17.068308 2.332339 -5.580965 -4.763719 33.481475 -29.986566 30.778075 -5.285173 -0.000001 0.000004 -0.000001 -0.000000 -0.000000 
0.040427 131.327637 -0.543777 -90.699687 -1.996333 1.593847 0.644975 -0.183378 -0.652656 0.790639 0.010042 -0.442317 0.000000 0.000000 0.000000 0.802097 0.001533 -0.423876 -4.784980 4.319757 -8.193457 6.265803 8.513243 -15.381157 0.000001 -0.000000 0.000000 0.814094 -6.042073 -3.750279 0.000000 0.000000 0.000000 44.046322 -39.816212 -34.649253 0.000057 -83.299389 0.000077 -22.982825 -8.421628 7.140838 -1.945767 1.585347 13.204804 8.601859 21.114948 -0.258290 -4.250525 28.326760 20.005254 0.000002 -0.000000 -0.000000 0.776303 5.158041 -28.512486 0.566013 2.514173 -25.370934 0.306476 1.871760 -18.596445 0.000002 0.000000 -0.000002 0.776305 5.158037 -28.512490 0.566013 2.514182 -25.370932 0.084760 0.994026 -9.747974 0.000000 0.000003 -0.000001 0.776303 5.158039 -28.512490 0.351475 2.000423 -19.928009 0.131450 1.235369 -12.147807 -0.000001 0.000000 0.000000 0.776299 5.158039 -28.512490 0.064894 0.870541 -8.527016 0.131460 1.235369 -12.147805 0.000001 -0.000000 -0.000000 0.495737 4.266201 2.985394 0.000000 0.000000 0.000000 -4.348697 2.459899 83.910301 -0.000008 129.426484 0.000016 -0.009923 -5.599742 64.826644 -1.120913 -3.665708 -6.555861 8.244830 -30.620793 -3.274784 -5.098216 -8.587463 -15.375845 0.000003 0.000000 0.000001 4.540595 -8.344329 48.387403 6.575554 -4.244508 114.349087 1.886323 -3.744694 53.459812 0.000001 0.000002 0.000002 2.375472 -6.542200 44.640214 7.222607 -3.888175 123.454809 1.885850 -3.744339 53.452681 0.000001 -0.000000 0.000002 2.745561 -6.923872 44.442282 7.225013 -3.886595 123.490298 1.886196 -3.744592 53.457821 0.000001 0.000000 0.000002 -10.268029 -14.528490 47.436299 6.314151 -4.353043 110.862911 1.885511 -3.744062 53.447197 0.000001 0.000001 -0.000001 -3.821878 20.407704 15.191708 3.072578 1.290288 1.573390 22.660944 29.818475 -25.431405 -2.364387 0.000008 0.000008 -0.000000 -0.000003 0.000000 -5.347384 -20.121831 -17.066698 2.334271 -5.566734 -4.764415 33.490542 -29.986600 30.782238 -5.250981 0.000012 -0.000011 0.000000 0.000000 -0.000000 
